<mxfile host="65bd71144e">
    <diagram id="3VX-1kPTdENOF6TzXGfh" name="Page-1">
        <mxGraphModel dx="3450" dy="1747" grid="1" gridSize="10" guides="1" tooltips="1" connect="1" arrows="1" fold="1" page="1" pageScale="1" pageWidth="850" pageHeight="1100" math="0" shadow="0">
            <root>
                <mxCell id="0"/>
                <mxCell id="1" parent="0"/>
                <mxCell id="148" value="" style="rounded=1;whiteSpace=wrap;html=1;fillColor=#ffe6cc;strokeColor=#d79b00;" vertex="1" parent="1">
                    <mxGeometry x="810" y="363" width="450" height="100" as="geometry"/>
                </mxCell>
                <mxCell id="10" style="edgeStyle=none;html=1;entryX=0.5;entryY=0;entryDx=0;entryDy=0;" edge="1" parent="1" source="2" target="9">
                    <mxGeometry relative="1" as="geometry"/>
                </mxCell>
                <mxCell id="17" style="edgeStyle=none;html=1;entryX=0.5;entryY=0;entryDx=0;entryDy=0;" edge="1" parent="1" source="2" target="16">
                    <mxGeometry relative="1" as="geometry"/>
                </mxCell>
                <mxCell id="19" style="edgeStyle=none;html=1;entryX=0.5;entryY=0;entryDx=0;entryDy=0;" edge="1" parent="1" source="2" target="18">
                    <mxGeometry relative="1" as="geometry"/>
                </mxCell>
                <mxCell id="21" style="edgeStyle=none;html=1;entryX=0.5;entryY=0;entryDx=0;entryDy=0;" edge="1" parent="1" source="2" target="20">
                    <mxGeometry relative="1" as="geometry"/>
                </mxCell>
                <mxCell id="31" style="edgeStyle=none;html=1;" edge="1" parent="1" source="2" target="30">
                    <mxGeometry relative="1" as="geometry"/>
                </mxCell>
                <mxCell id="2" value="placements&lt;div&gt;(seq)&lt;/div&gt;" style="rounded=1;whiteSpace=wrap;html=1;fillColor=#ffe6cc;strokeColor=#d79b00;" vertex="1" parent="1">
                    <mxGeometry x="160" y="162" width="120" height="60" as="geometry"/>
                </mxCell>
                <mxCell id="4" style="edgeStyle=none;html=1;" edge="1" parent="1" source="3" target="2">
                    <mxGeometry relative="1" as="geometry"/>
                </mxCell>
                <mxCell id="3" value="\player" style="text;html=1;align=center;verticalAlign=middle;whiteSpace=wrap;rounded=0;" vertex="1" parent="1">
                    <mxGeometry x="100" y="80" width="60" height="30" as="geometry"/>
                </mxCell>
                <mxCell id="6" style="edgeStyle=none;html=1;entryX=0.5;entryY=0;entryDx=0;entryDy=0;" edge="1" parent="1" source="5" target="2">
                    <mxGeometry relative="1" as="geometry"/>
                </mxCell>
                <mxCell id="5" value="\placements" style="text;html=1;align=center;verticalAlign=middle;resizable=0;points=[];autosize=1;strokeColor=none;fillColor=none;" vertex="1" parent="1">
                    <mxGeometry x="170" y="80" width="90" height="30" as="geometry"/>
                </mxCell>
                <mxCell id="8" style="edgeStyle=none;html=1;" edge="1" parent="1" source="7" target="2">
                    <mxGeometry relative="1" as="geometry"/>
                </mxCell>
                <mxCell id="7" value="\territories" style="text;html=1;align=center;verticalAlign=middle;resizable=0;points=[];autosize=1;strokeColor=none;fillColor=none;" vertex="1" parent="1">
                    <mxGeometry x="260" y="80" width="80" height="30" as="geometry"/>
                </mxCell>
                <mxCell id="9" value="check placements" style="ellipse;whiteSpace=wrap;html=1;fillColor=#f5f5f5;fontColor=#333333;strokeColor=#666666;" vertex="1" parent="1">
                    <mxGeometry x="-10" y="302" width="90" height="70" as="geometry"/>
                </mxCell>
                <mxCell id="12" style="edgeStyle=none;html=1;" edge="1" parent="1" source="11" target="9">
                    <mxGeometry relative="1" as="geometry"/>
                </mxCell>
                <mxCell id="11" value="\placements" style="text;html=1;align=center;verticalAlign=middle;resizable=0;points=[];autosize=1;strokeColor=none;fillColor=none;" vertex="1" parent="1">
                    <mxGeometry x="-160" y="292" width="90" height="30" as="geometry"/>
                </mxCell>
                <mxCell id="81" style="edgeStyle=none;html=1;" edge="1" parent="1" source="13" target="9">
                    <mxGeometry relative="1" as="geometry"/>
                </mxCell>
                <mxCell id="13" value="\placed" style="text;html=1;align=center;verticalAlign=middle;resizable=0;points=[];autosize=1;strokeColor=none;fillColor=none;" vertex="1" parent="1">
                    <mxGeometry x="-145" y="342" width="60" height="30" as="geometry"/>
                </mxCell>
                <mxCell id="23" style="edgeStyle=none;html=1;" edge="1" parent="1" source="16" target="22">
                    <mxGeometry relative="1" as="geometry"/>
                </mxCell>
                <mxCell id="16" value="select&lt;div&gt;territory&lt;/div&gt;" style="ellipse;whiteSpace=wrap;html=1;fillColor=#f5f5f5;fontColor=#333333;strokeColor=#666666;" vertex="1" parent="1">
                    <mxGeometry x="110" y="302" width="90" height="70" as="geometry"/>
                </mxCell>
                <mxCell id="25" style="edgeStyle=none;html=1;" edge="1" parent="1" source="18" target="24">
                    <mxGeometry relative="1" as="geometry"/>
                </mxCell>
                <mxCell id="18" value="select num of troops" style="ellipse;whiteSpace=wrap;html=1;fillColor=#f5f5f5;fontColor=#333333;strokeColor=#666666;" vertex="1" parent="1">
                    <mxGeometry x="230" y="302" width="90" height="70" as="geometry"/>
                </mxCell>
                <mxCell id="29" style="edgeStyle=none;html=1;" edge="1" parent="1" source="20" target="26">
                    <mxGeometry relative="1" as="geometry"/>
                </mxCell>
                <mxCell id="20" value="add event to plan" style="ellipse;whiteSpace=wrap;html=1;fillColor=#f5f5f5;fontColor=#333333;strokeColor=#666666;" vertex="1" parent="1">
                    <mxGeometry x="350" y="302" width="90" height="70" as="geometry"/>
                </mxCell>
                <mxCell id="22" value="\terr" style="text;html=1;align=center;verticalAlign=middle;resizable=0;points=[];autosize=1;strokeColor=none;fillColor=none;" vertex="1" parent="1">
                    <mxGeometry x="135" y="402" width="40" height="30" as="geometry"/>
                </mxCell>
                <mxCell id="24" value="\troops" style="text;html=1;align=center;verticalAlign=middle;resizable=0;points=[];autosize=1;strokeColor=none;fillColor=none;" vertex="1" parent="1">
                    <mxGeometry x="245" y="402" width="60" height="30" as="geometry"/>
                </mxCell>
                <mxCell id="26" value="\plan" style="text;html=1;align=center;verticalAlign=middle;resizable=0;points=[];autosize=1;strokeColor=none;fillColor=none;" vertex="1" parent="1">
                    <mxGeometry x="370" y="400" width="50" height="30" as="geometry"/>
                </mxCell>
                <mxCell id="28" style="edgeStyle=none;html=1;" edge="1" parent="1" source="27" target="20">
                    <mxGeometry relative="1" as="geometry"/>
                </mxCell>
                <mxCell id="27" value="\plan" style="text;html=1;align=center;verticalAlign=middle;resizable=0;points=[];autosize=1;strokeColor=none;fillColor=none;" vertex="1" parent="1">
                    <mxGeometry x="480" y="322" width="50" height="30" as="geometry"/>
                </mxCell>
                <mxCell id="30" value="\plan" style="text;html=1;align=center;verticalAlign=middle;resizable=0;points=[];autosize=1;strokeColor=none;fillColor=none;" vertex="1" parent="1">
                    <mxGeometry x="320" y="177" width="50" height="30" as="geometry"/>
                </mxCell>
                <mxCell id="34" value="" style="group" vertex="1" connectable="0" parent="1">
                    <mxGeometry x="-770" y="40" width="120" height="60" as="geometry"/>
                </mxCell>
                <mxCell id="32" value="Sequence" style="rounded=1;whiteSpace=wrap;html=1;fillColor=#ffe6cc;strokeColor=#d79b00;" vertex="1" parent="34">
                    <mxGeometry width="120" height="60" as="geometry"/>
                </mxCell>
                <mxCell id="33" value="" style="shape=flexArrow;endArrow=classic;html=1;fillColor=#FF9933;strokeColor=#663300;opacity=50;" edge="1" parent="34">
                    <mxGeometry width="50" height="50" relative="1" as="geometry">
                        <mxPoint x="10" y="30" as="sourcePoint"/>
                        <mxPoint x="50" y="30" as="targetPoint"/>
                    </mxGeometry>
                </mxCell>
                <mxCell id="44" value="" style="group" vertex="1" connectable="0" parent="1">
                    <mxGeometry x="-770" y="190" width="120" height="60" as="geometry"/>
                </mxCell>
                <mxCell id="41" value="Retry" style="rounded=1;whiteSpace=wrap;html=1;" vertex="1" parent="44">
                    <mxGeometry width="120" height="60" as="geometry"/>
                </mxCell>
                <mxCell id="43" value="" style="shape=image;verticalLabelPosition=bottom;labelBackgroundColor=default;verticalAlign=top;aspect=fixed;imageAspect=0;image=data:image/svg+xml,PHN2ZyB4bWxucz0iaHR0cDovL3d3dy53My5vcmcvMjAwMC9zdmciIHZpZXdCb3g9IjAgMCAyNCAyNCI+PHBhdGggZD0iTTE3LDE3SDdWMTRMMywxOEw3LDIyVjE5SDE5VjEzSDE3TTcsN0gxN1YxMEwyMSw2TDE3LDJWNUg1VjExSDdWN1oiLz48L3N2Zz4=;opacity=50;" vertex="1" parent="44">
                    <mxGeometry x="12" y="12" width="36" height="36" as="geometry"/>
                </mxCell>
                <mxCell id="45" value="" style="group" vertex="1" connectable="0" parent="1">
                    <mxGeometry x="-770" y="110" width="120" height="60" as="geometry"/>
                </mxCell>
                <mxCell id="38" value="Inverter" style="rounded=1;whiteSpace=wrap;html=1;" vertex="1" parent="45">
                    <mxGeometry width="120" height="60" as="geometry"/>
                </mxCell>
                <mxCell id="36" value="" style="shape=image;verticalLabelPosition=bottom;labelBackgroundColor=default;verticalAlign=top;aspect=fixed;imageAspect=0;image=data:image/svg+xml,PHN2ZyB4bWxucz0iaHR0cDovL3d3dy53My5vcmcvMjAwMC9zdmciIHZpZXdCb3g9IjAgMCAyNCAyNCI+PHBhdGggZD0iTTEyLDE5LjU4VjE5LjU4QzEwLjQsMTkuNTggOC44OSwxOC45NiA3Ljc2LDE3LjgzQzYuNjIsMTYuNjkgNiwxNS4xOSA2LDEzLjU4QzYsMTIgNi42MiwxMC40NyA3Ljc2LDkuMzRMMTIsNS4xTTE3LjY2LDcuOTNMMTIsMi4yN1YyLjI3TDYuMzQsNy45M0MzLjIyLDExLjA1IDMuMjIsMTYuMTIgNi4zNCwxOS4yNEM3LjksMjAuOCA5Ljk1LDIxLjU4IDEyLDIxLjU4QzE0LjA1LDIxLjU4IDE2LjEsMjAuOCAxNy42NiwxOS4yNEMyMC43OCwxNi4xMiAyMC43OCwxMS4wNSAxNy42Niw3LjkzWiIvPjwvc3ZnPg==;imageBackground=none;fontColor=#33FF33;opacity=50;" vertex="1" parent="45">
                    <mxGeometry x="12" y="12" width="36" height="36" as="geometry"/>
                </mxCell>
                <mxCell id="46" value="" style="group" vertex="1" connectable="0" parent="1">
                    <mxGeometry x="1037" y="40" width="120" height="60" as="geometry"/>
                </mxCell>
                <mxCell id="47" value="construct plan" style="rounded=1;whiteSpace=wrap;html=1;fillColor=#ffe6cc;strokeColor=#d79b00;" vertex="1" parent="46">
                    <mxGeometry width="120" height="60" as="geometry"/>
                </mxCell>
                <mxCell id="48" value="" style="shape=flexArrow;endArrow=classic;html=1;fillColor=#FF9933;strokeColor=#663300;opacity=50;" edge="1" parent="46">
                    <mxGeometry width="50" height="50" relative="1" as="geometry">
                        <mxPoint x="10" y="30" as="sourcePoint"/>
                        <mxPoint x="50" y="30" as="targetPoint"/>
                    </mxGeometry>
                </mxCell>
                <mxCell id="49" value="" style="group" vertex="1" connectable="0" parent="1">
                    <mxGeometry x="1037" y="130" width="120" height="60" as="geometry"/>
                </mxCell>
                <mxCell id="50" value="add steps until" style="rounded=1;whiteSpace=wrap;html=1;" vertex="1" parent="49">
                    <mxGeometry width="120" height="60" as="geometry"/>
                </mxCell>
                <mxCell id="51" value="" style="shape=image;verticalLabelPosition=bottom;labelBackgroundColor=default;verticalAlign=top;aspect=fixed;imageAspect=0;image=data:image/svg+xml,PHN2ZyB4bWxucz0iaHR0cDovL3d3dy53My5vcmcvMjAwMC9zdmciIHZpZXdCb3g9IjAgMCAyNCAyNCI+PHBhdGggZD0iTTE3LDE3SDdWMTRMMywxOEw3LDIyVjE5SDE5VjEzSDE3TTcsN0gxN1YxMEwyMSw2TDE3LDJWNUg1VjExSDdWN1oiLz48L3N2Zz4=;opacity=50;" vertex="1" parent="49">
                    <mxGeometry x="12" y="12" width="36" height="36" as="geometry"/>
                </mxCell>
                <mxCell id="55" value="" style="group" vertex="1" connectable="0" parent="1">
                    <mxGeometry x="1036" y="230" width="120" height="60" as="geometry"/>
                </mxCell>
                <mxCell id="56" value="find a step" style="rounded=1;whiteSpace=wrap;html=1;fillColor=#ffe6cc;strokeColor=#d79b00;" vertex="1" parent="55">
                    <mxGeometry width="120" height="60" as="geometry"/>
                </mxCell>
                <mxCell id="57" value="" style="shape=flexArrow;endArrow=classic;html=1;fillColor=#FF9933;strokeColor=#663300;opacity=50;" edge="1" parent="55">
                    <mxGeometry width="50" height="50" relative="1" as="geometry">
                        <mxPoint x="10" y="30" as="sourcePoint"/>
                        <mxPoint x="50" y="30" as="targetPoint"/>
                    </mxGeometry>
                </mxCell>
                <mxCell id="58" value="check placements" style="ellipse;whiteSpace=wrap;html=1;fillColor=#f5f5f5;fontColor=#333333;strokeColor=#666666;" vertex="1" parent="1">
                    <mxGeometry x="810" y="378" width="90" height="70" as="geometry"/>
                </mxCell>
                <mxCell id="59" value="select&lt;div&gt;territory&lt;/div&gt;" style="ellipse;whiteSpace=wrap;html=1;fillColor=#f5f5f5;fontColor=#333333;strokeColor=#666666;" vertex="1" parent="1">
                    <mxGeometry x="930" y="378" width="90" height="70" as="geometry"/>
                </mxCell>
                <mxCell id="60" value="select num of troops" style="ellipse;whiteSpace=wrap;html=1;fillColor=#f5f5f5;fontColor=#333333;strokeColor=#666666;" vertex="1" parent="1">
                    <mxGeometry x="1050" y="378" width="90" height="70" as="geometry"/>
                </mxCell>
                <mxCell id="61" value="add event to plan" style="ellipse;whiteSpace=wrap;html=1;fillColor=#f5f5f5;fontColor=#333333;strokeColor=#666666;" vertex="1" parent="1">
                    <mxGeometry x="1170" y="378" width="90" height="70" as="geometry"/>
                </mxCell>
                <mxCell id="64" value="" style="group" vertex="1" connectable="0" parent="1">
                    <mxGeometry x="1290" y="388" width="120" height="60" as="geometry"/>
                </mxCell>
                <mxCell id="65" value="flip check" style="rounded=1;whiteSpace=wrap;html=1;" vertex="1" parent="64">
                    <mxGeometry width="120" height="60" as="geometry"/>
                </mxCell>
                <mxCell id="66" value="" style="shape=image;verticalLabelPosition=bottom;labelBackgroundColor=default;verticalAlign=top;aspect=fixed;imageAspect=0;image=data:image/svg+xml,PHN2ZyB4bWxucz0iaHR0cDovL3d3dy53My5vcmcvMjAwMC9zdmciIHZpZXdCb3g9IjAgMCAyNCAyNCI+PHBhdGggZD0iTTEyLDE5LjU4VjE5LjU4QzEwLjQsMTkuNTggOC44OSwxOC45NiA3Ljc2LDE3LjgzQzYuNjIsMTYuNjkgNiwxNS4xOSA2LDEzLjU4QzYsMTIgNi42MiwxMC40NyA3Ljc2LDkuMzRMMTIsNS4xTTE3LjY2LDcuOTNMMTIsMi4yN1YyLjI3TDYuMzQsNy45M0MzLjIyLDExLjA1IDMuMjIsMTYuMTIgNi4zNCwxOS4yNEM3LjksMjAuOCA5Ljk1LDIxLjU4IDEyLDIxLjU4QzE0LjA1LDIxLjU4IDE2LjEsMjAuOCAxNy42NiwxOS4yNEMyMC43OCwxNi4xMiAyMC43OCwxMS4wNSAxNy42Niw3LjkzWiIvPjwvc3ZnPg==;imageBackground=none;fontColor=#33FF33;opacity=50;" vertex="1" parent="64">
                    <mxGeometry x="12" y="12" width="36" height="36" as="geometry"/>
                </mxCell>
                <mxCell id="67" value="check placements" style="ellipse;whiteSpace=wrap;html=1;fillColor=#f5f5f5;fontColor=#333333;strokeColor=#666666;" vertex="1" parent="1">
                    <mxGeometry x="1305" y="498" width="90" height="70" as="geometry"/>
                </mxCell>
                <mxCell id="68" style="edgeStyle=none;html=1;entryX=0.5;entryY=0;entryDx=0;entryDy=0;" edge="1" parent="1" source="56" target="58">
                    <mxGeometry relative="1" as="geometry"/>
                </mxCell>
                <mxCell id="69" style="edgeStyle=none;html=1;entryX=0.5;entryY=0;entryDx=0;entryDy=0;" edge="1" parent="1" source="56" target="59">
                    <mxGeometry relative="1" as="geometry"/>
                </mxCell>
                <mxCell id="70" style="edgeStyle=none;html=1;entryX=0.5;entryY=0;entryDx=0;entryDy=0;" edge="1" parent="1" source="56" target="60">
                    <mxGeometry relative="1" as="geometry"/>
                </mxCell>
                <mxCell id="71" style="edgeStyle=none;html=1;entryX=0.5;entryY=0;entryDx=0;entryDy=0;" edge="1" parent="1" source="56" target="61">
                    <mxGeometry relative="1" as="geometry"/>
                </mxCell>
                <mxCell id="72" style="edgeStyle=none;html=1;entryX=0.5;entryY=0;entryDx=0;entryDy=0;" edge="1" parent="1" source="56" target="65">
                    <mxGeometry relative="1" as="geometry"/>
                </mxCell>
                <mxCell id="73" style="edgeStyle=none;html=1;entryX=0.5;entryY=0;entryDx=0;entryDy=0;" edge="1" parent="1" source="65" target="67">
                    <mxGeometry relative="1" as="geometry"/>
                </mxCell>
                <mxCell id="74" style="edgeStyle=none;html=1;" edge="1" parent="1" source="47" target="50">
                    <mxGeometry relative="1" as="geometry"/>
                </mxCell>
                <mxCell id="75" value="" style="edgeStyle=none;html=1;entryX=0.5;entryY=0;entryDx=0;entryDy=0;" edge="1" parent="1" source="50">
                    <mxGeometry relative="1" as="geometry">
                        <mxPoint x="1097" y="230" as="targetPoint"/>
                    </mxGeometry>
                </mxCell>
                <mxCell id="77" value="do all child nodes from left to right,&amp;nbsp;&lt;div&gt;until a node fails or all nodes are visited.&lt;/div&gt;&lt;div&gt;The last nodes status is adopted if run.&lt;/div&gt;" style="text;html=1;align=center;verticalAlign=middle;resizable=0;points=[];autosize=1;strokeColor=none;fillColor=none;" vertex="1" parent="1">
                    <mxGeometry x="-635" y="40" width="240" height="60" as="geometry"/>
                </mxCell>
                <mxCell id="78" value="Flip the status of the last node,&amp;nbsp;&lt;div&gt;succes -&amp;gt; fail, fail -&amp;gt; success&lt;/div&gt;" style="text;html=1;align=center;verticalAlign=middle;resizable=0;points=[];autosize=1;strokeColor=none;fillColor=none;" vertex="1" parent="1">
                    <mxGeometry x="-615" y="120" width="190" height="40" as="geometry"/>
                </mxCell>
                <mxCell id="79" value="Attempt the given behaviour,&amp;nbsp;&lt;div&gt;until it returns sucess.&lt;/div&gt;" style="text;html=1;align=center;verticalAlign=middle;resizable=0;points=[];autosize=1;strokeColor=none;fillColor=none;" vertex="1" parent="1">
                    <mxGeometry x="-610" y="200" width="180" height="40" as="geometry"/>
                </mxCell>
                <mxCell id="82" value="" style="group" vertex="1" connectable="0" parent="1">
                    <mxGeometry x="150" y="762" width="120" height="60" as="geometry"/>
                </mxCell>
                <mxCell id="83" value="attack?" style="rounded=1;whiteSpace=wrap;html=1;fillColor=#ffe6cc;strokeColor=#d79b00;" vertex="1" parent="82">
                    <mxGeometry width="120" height="60" as="geometry"/>
                </mxCell>
                <mxCell id="84" value="" style="shape=flexArrow;endArrow=classic;html=1;fillColor=#FF9933;strokeColor=#663300;opacity=50;" edge="1" parent="82">
                    <mxGeometry width="50" height="50" relative="1" as="geometry">
                        <mxPoint x="10" y="30" as="sourcePoint"/>
                        <mxPoint x="50" y="30" as="targetPoint"/>
                    </mxGeometry>
                </mxCell>
                <mxCell id="88" style="edgeStyle=none;html=1;" edge="1" parent="1" source="85" target="83">
                    <mxGeometry relative="1" as="geometry"/>
                </mxCell>
                <mxCell id="85" value="\player" style="text;html=1;align=center;verticalAlign=middle;whiteSpace=wrap;rounded=0;" vertex="1" parent="1">
                    <mxGeometry x="90" y="702" width="60" height="30" as="geometry"/>
                </mxCell>
                <mxCell id="90" style="edgeStyle=none;html=1;entryX=0.75;entryY=0;entryDx=0;entryDy=0;" edge="1" parent="1" source="86" target="83">
                    <mxGeometry relative="1" as="geometry"/>
                </mxCell>
                <mxCell id="86" value="\territories" style="text;html=1;align=center;verticalAlign=middle;resizable=0;points=[];autosize=1;strokeColor=none;fillColor=none;" vertex="1" parent="1">
                    <mxGeometry x="270" y="702" width="80" height="30" as="geometry"/>
                </mxCell>
                <mxCell id="89" style="edgeStyle=none;html=1;" edge="1" parent="1" source="87" target="83">
                    <mxGeometry relative="1" as="geometry"/>
                </mxCell>
                <mxCell id="87" value="\pos_attacks" style="text;html=1;align=center;verticalAlign=middle;resizable=0;points=[];autosize=1;strokeColor=none;fillColor=none;" vertex="1" parent="1">
                    <mxGeometry x="220" y="660" width="90" height="30" as="geometry"/>
                </mxCell>
                <mxCell id="177" style="edgeStyle=none;html=1;entryX=0.5;entryY=0;entryDx=0;entryDy=0;" edge="1" parent="1" source="91" target="175">
                    <mxGeometry relative="1" as="geometry"/>
                </mxCell>
                <mxCell id="178" style="edgeStyle=none;html=1;entryX=0.5;entryY=0;entryDx=0;entryDy=0;" edge="1" parent="1" source="91" target="176">
                    <mxGeometry relative="1" as="geometry"/>
                </mxCell>
                <mxCell id="91" value="Should&amp;nbsp;&lt;div&gt;attack?&lt;/div&gt;" style="ellipse;whiteSpace=wrap;html=1;fillColor=#f5f5f5;fontColor=#333333;strokeColor=#666666;" vertex="1" parent="1">
                    <mxGeometry x="-200" y="912" width="90" height="70" as="geometry"/>
                </mxCell>
                <mxCell id="92" value="\atk_prob" style="text;html=1;align=center;verticalAlign=middle;resizable=0;points=[];autosize=1;strokeColor=none;fillColor=none;" vertex="1" parent="1">
                    <mxGeometry x="120" y="660" width="70" height="30" as="geometry"/>
                </mxCell>
                <mxCell id="93" style="edgeStyle=none;html=1;entryX=0.367;entryY=0.057;entryDx=0;entryDy=0;entryPerimeter=0;" edge="1" parent="1" source="92" target="83">
                    <mxGeometry relative="1" as="geometry"/>
                </mxCell>
                <mxCell id="94" style="edgeStyle=none;html=1;entryX=0.5;entryY=0;entryDx=0;entryDy=0;" edge="1" parent="1" source="83" target="91">
                    <mxGeometry relative="1" as="geometry"/>
                </mxCell>
                <mxCell id="96" style="edgeStyle=none;html=1;entryX=0;entryY=0.5;entryDx=0;entryDy=0;" edge="1" parent="1" source="95" target="91">
                    <mxGeometry relative="1" as="geometry"/>
                </mxCell>
                <mxCell id="95" value="\atk_prob" style="text;html=1;align=center;verticalAlign=middle;resizable=0;points=[];autosize=1;strokeColor=none;fillColor=none;" vertex="1" parent="1">
                    <mxGeometry x="-330" y="932" width="70" height="30" as="geometry"/>
                </mxCell>
                <mxCell id="98" style="edgeStyle=none;html=1;entryX=0;entryY=0;entryDx=0;entryDy=0;" edge="1" parent="1" target="91">
                    <mxGeometry relative="1" as="geometry">
                        <mxPoint x="-265" y="918.4303738745593" as="sourcePoint"/>
                    </mxGeometry>
                </mxCell>
                <mxCell id="100" style="edgeStyle=none;html=1;" edge="1" parent="1" source="99" target="91">
                    <mxGeometry relative="1" as="geometry"/>
                </mxCell>
                <mxCell id="99" value="\pos_attacks" style="text;html=1;align=center;verticalAlign=middle;resizable=0;points=[];autosize=1;strokeColor=none;fillColor=none;" vertex="1" parent="1">
                    <mxGeometry x="-340" y="972" width="90" height="30" as="geometry"/>
                </mxCell>
                <mxCell id="150" style="edgeStyle=none;html=1;" edge="1" parent="1" source="102" target="114">
                    <mxGeometry relative="1" as="geometry"/>
                </mxCell>
                <mxCell id="102" value="select&lt;div&gt;territory&lt;/div&gt;" style="ellipse;whiteSpace=wrap;html=1;fillColor=#f5f5f5;fontColor=#333333;strokeColor=#666666;" vertex="1" parent="1">
                    <mxGeometry x="-75" y="912" width="90" height="70" as="geometry"/>
                </mxCell>
                <mxCell id="103" style="edgeStyle=none;html=1;entryX=0.5;entryY=0;entryDx=0;entryDy=0;" edge="1" parent="1" source="83" target="102">
                    <mxGeometry relative="1" as="geometry"/>
                </mxCell>
                <mxCell id="151" style="edgeStyle=none;html=1;" edge="1" parent="1" source="104" target="116">
                    <mxGeometry relative="1" as="geometry"/>
                </mxCell>
                <mxCell id="104" value="select&lt;div&gt;territory&lt;/div&gt;" style="ellipse;whiteSpace=wrap;html=1;fillColor=#f5f5f5;fontColor=#333333;strokeColor=#666666;" vertex="1" parent="1">
                    <mxGeometry x="165" y="910" width="90" height="70" as="geometry"/>
                </mxCell>
                <mxCell id="105" style="edgeStyle=none;html=1;entryX=0.5;entryY=0;entryDx=0;entryDy=0;" edge="1" parent="1" source="83" target="104">
                    <mxGeometry relative="1" as="geometry"/>
                </mxCell>
                <mxCell id="152" style="edgeStyle=none;html=1;" edge="1" parent="1" source="106" target="115">
                    <mxGeometry relative="1" as="geometry"/>
                </mxCell>
                <mxCell id="106" value="select num of troops" style="ellipse;whiteSpace=wrap;html=1;fillColor=#f5f5f5;fontColor=#333333;strokeColor=#666666;" vertex="1" parent="1">
                    <mxGeometry x="300" y="910" width="90" height="70" as="geometry"/>
                </mxCell>
                <mxCell id="107" style="edgeStyle=none;html=1;entryX=0.5;entryY=0;entryDx=0;entryDy=0;" edge="1" parent="1" source="83" target="106">
                    <mxGeometry relative="1" as="geometry"/>
                </mxCell>
                <mxCell id="113" style="edgeStyle=none;html=1;" edge="1" parent="1" source="108" target="112">
                    <mxGeometry relative="1" as="geometry"/>
                </mxCell>
                <mxCell id="108" value="add event to plan" style="ellipse;whiteSpace=wrap;html=1;fillColor=#f5f5f5;fontColor=#333333;strokeColor=#666666;" vertex="1" parent="1">
                    <mxGeometry x="440" y="910" width="90" height="70" as="geometry"/>
                </mxCell>
                <mxCell id="109" style="edgeStyle=none;html=1;entryX=0.5;entryY=0;entryDx=0;entryDy=0;" edge="1" parent="1" source="83" target="108">
                    <mxGeometry relative="1" as="geometry"/>
                </mxCell>
                <mxCell id="111" style="edgeStyle=none;html=1;" edge="1" parent="1" source="110" target="108">
                    <mxGeometry relative="1" as="geometry"/>
                </mxCell>
                <mxCell id="110" value="\plan" style="text;html=1;align=center;verticalAlign=middle;resizable=0;points=[];autosize=1;strokeColor=none;fillColor=none;" vertex="1" parent="1">
                    <mxGeometry x="573" y="930" width="50" height="30" as="geometry"/>
                </mxCell>
                <mxCell id="112" value="\plan" style="text;html=1;align=center;verticalAlign=middle;resizable=0;points=[];autosize=1;strokeColor=none;fillColor=none;" vertex="1" parent="1">
                    <mxGeometry x="460" y="1020" width="50" height="30" as="geometry"/>
                </mxCell>
                <mxCell id="114" value="\terr" style="text;html=1;align=center;verticalAlign=middle;resizable=0;points=[];autosize=1;strokeColor=none;fillColor=none;" vertex="1" parent="1">
                    <mxGeometry x="-50" y="1020" width="40" height="30" as="geometry"/>
                </mxCell>
                <mxCell id="115" value="\troops" style="text;html=1;align=center;verticalAlign=middle;resizable=0;points=[];autosize=1;strokeColor=none;fillColor=none;" vertex="1" parent="1">
                    <mxGeometry x="315" y="1018" width="60" height="30" as="geometry"/>
                </mxCell>
                <mxCell id="116" value="\adjacent" style="text;html=1;align=center;verticalAlign=middle;resizable=0;points=[];autosize=1;strokeColor=none;fillColor=none;" vertex="1" parent="1">
                    <mxGeometry x="175" y="1018" width="70" height="30" as="geometry"/>
                </mxCell>
                <mxCell id="117" value="" style="group" vertex="1" connectable="0" parent="1">
                    <mxGeometry x="1100" y="610" width="120" height="60" as="geometry"/>
                </mxCell>
                <mxCell id="118" value="construct plan" style="rounded=1;whiteSpace=wrap;html=1;fillColor=#ffe6cc;strokeColor=#d79b00;" vertex="1" parent="117">
                    <mxGeometry width="120" height="60" as="geometry"/>
                </mxCell>
                <mxCell id="119" value="" style="shape=flexArrow;endArrow=classic;html=1;fillColor=#FF9933;strokeColor=#663300;opacity=50;" edge="1" parent="117">
                    <mxGeometry width="50" height="50" relative="1" as="geometry">
                        <mxPoint x="10" y="30" as="sourcePoint"/>
                        <mxPoint x="50" y="30" as="targetPoint"/>
                    </mxGeometry>
                </mxCell>
                <mxCell id="120" value="" style="group" vertex="1" connectable="0" parent="1">
                    <mxGeometry x="1100" y="710" width="120" height="60" as="geometry"/>
                </mxCell>
                <mxCell id="121" value="add steps until" style="rounded=1;whiteSpace=wrap;html=1;" vertex="1" parent="120">
                    <mxGeometry width="120" height="60" as="geometry"/>
                </mxCell>
                <mxCell id="122" value="" style="shape=image;verticalLabelPosition=bottom;labelBackgroundColor=default;verticalAlign=top;aspect=fixed;imageAspect=0;image=data:image/svg+xml,PHN2ZyB4bWxucz0iaHR0cDovL3d3dy53My5vcmcvMjAwMC9zdmciIHZpZXdCb3g9IjAgMCAyNCAyNCI+PHBhdGggZD0iTTE3LDE3SDdWMTRMMywxOEw3LDIyVjE5SDE5VjEzSDE3TTcsN0gxN1YxMEwyMSw2TDE3LDJWNUg1VjExSDdWN1oiLz48L3N2Zz4=;opacity=50;" vertex="1" parent="120">
                    <mxGeometry x="12" y="12" width="36" height="36" as="geometry"/>
                </mxCell>
                <mxCell id="123" style="edgeStyle=none;html=1;" edge="1" source="118" target="121" parent="1">
                    <mxGeometry relative="1" as="geometry"/>
                </mxCell>
                <mxCell id="124" value="" style="group" vertex="1" connectable="0" parent="1">
                    <mxGeometry x="1100" y="800" width="120" height="60" as="geometry"/>
                </mxCell>
                <mxCell id="126" value="" style="shape=flexArrow;endArrow=classic;html=1;fillColor=#FF9933;strokeColor=#663300;opacity=50;" edge="1" parent="124">
                    <mxGeometry width="50" height="50" relative="1" as="geometry">
                        <mxPoint x="10" y="30" as="sourcePoint"/>
                        <mxPoint x="50" y="30" as="targetPoint"/>
                    </mxGeometry>
                </mxCell>
                <mxCell id="157" value="" style="group" vertex="1" connectable="0" parent="124">
                    <mxGeometry width="120" height="60" as="geometry"/>
                </mxCell>
                <mxCell id="158" value="flip check" style="rounded=1;whiteSpace=wrap;html=1;" vertex="1" parent="157">
                    <mxGeometry width="120" height="60" as="geometry"/>
                </mxCell>
                <mxCell id="159" value="" style="shape=image;verticalLabelPosition=bottom;labelBackgroundColor=default;verticalAlign=top;aspect=fixed;imageAspect=0;image=data:image/svg+xml,PHN2ZyB4bWxucz0iaHR0cDovL3d3dy53My5vcmcvMjAwMC9zdmciIHZpZXdCb3g9IjAgMCAyNCAyNCI+PHBhdGggZD0iTTEyLDE5LjU4VjE5LjU4QzEwLjQsMTkuNTggOC44OSwxOC45NiA3Ljc2LDE3LjgzQzYuNjIsMTYuNjkgNiwxNS4xOSA2LDEzLjU4QzYsMTIgNi42MiwxMC40NyA3Ljc2LDkuMzRMMTIsNS4xTTE3LjY2LDcuOTNMMTIsMi4yN1YyLjI3TDYuMzQsNy45M0MzLjIyLDExLjA1IDMuMjIsMTYuMTIgNi4zNCwxOS4yNEM3LjksMjAuOCA5Ljk1LDIxLjU4IDEyLDIxLjU4QzE0LjA1LDIxLjU4IDE2LjEsMjAuOCAxNy42NiwxOS4yNEMyMC43OCwxNi4xMiAyMC43OCwxMS4wNSAxNy42Niw3LjkzWiIvPjwvc3ZnPg==;imageBackground=none;fontColor=#33FF33;opacity=50;" vertex="1" parent="157">
                    <mxGeometry x="12" y="12" width="36" height="36" as="geometry"/>
                </mxCell>
                <mxCell id="149" value="\plan" style="text;html=1;align=center;verticalAlign=middle;resizable=0;points=[];autosize=1;strokeColor=none;fillColor=none;" vertex="1" parent="1">
                    <mxGeometry x="-320" y="902" width="50" height="30" as="geometry"/>
                </mxCell>
                <mxCell id="156" style="edgeStyle=none;html=1;" edge="1" parent="1" source="153" target="155">
                    <mxGeometry relative="1" as="geometry"/>
                </mxCell>
                <mxCell id="153" value="find&lt;div&gt;adjacent&lt;/div&gt;" style="ellipse;whiteSpace=wrap;html=1;fillColor=#f5f5f5;fontColor=#333333;strokeColor=#666666;" vertex="1" parent="1">
                    <mxGeometry x="50" y="912" width="90" height="70" as="geometry"/>
                </mxCell>
                <mxCell id="154" style="edgeStyle=none;html=1;entryX=0.5;entryY=0;entryDx=0;entryDy=0;" edge="1" parent="1" source="83" target="153">
                    <mxGeometry relative="1" as="geometry"/>
                </mxCell>
                <mxCell id="155" value="\adjacents" style="text;html=1;align=center;verticalAlign=middle;resizable=0;points=[];autosize=1;strokeColor=none;fillColor=none;" vertex="1" parent="1">
                    <mxGeometry x="55" y="1018" width="80" height="30" as="geometry"/>
                </mxCell>
                <mxCell id="169" style="edgeStyle=none;html=1;entryX=0.5;entryY=0;entryDx=0;entryDy=0;" edge="1" parent="1" source="125" target="163">
                    <mxGeometry relative="1" as="geometry"/>
                </mxCell>
                <mxCell id="171" style="edgeStyle=none;html=1;entryX=0.5;entryY=0;entryDx=0;entryDy=0;" edge="1" parent="1" source="125" target="168">
                    <mxGeometry relative="1" as="geometry"/>
                </mxCell>
                <mxCell id="172" style="edgeStyle=none;html=1;entryX=0.5;entryY=0;entryDx=0;entryDy=0;" edge="1" parent="1" source="125" target="165">
                    <mxGeometry relative="1" as="geometry"/>
                </mxCell>
                <mxCell id="173" style="edgeStyle=none;html=1;entryX=0.5;entryY=0;entryDx=0;entryDy=0;" edge="1" parent="1" source="125" target="166">
                    <mxGeometry relative="1" as="geometry"/>
                </mxCell>
                <mxCell id="174" style="edgeStyle=none;html=1;entryX=0.5;entryY=0;entryDx=0;entryDy=0;" edge="1" parent="1" source="125" target="167">
                    <mxGeometry relative="1" as="geometry"/>
                </mxCell>
                <mxCell id="125" value="add step" style="rounded=1;whiteSpace=wrap;html=1;fillColor=#ffe6cc;strokeColor=#d79b00;" vertex="1" parent="1">
                    <mxGeometry x="1100" y="890" width="120" height="60" as="geometry"/>
                </mxCell>
                <mxCell id="161" style="edgeStyle=none;html=1;entryX=0.5;entryY=0;entryDx=0;entryDy=0;" edge="1" parent="1" source="121" target="158">
                    <mxGeometry relative="1" as="geometry"/>
                </mxCell>
                <mxCell id="162" style="edgeStyle=none;html=1;" edge="1" parent="1" source="158" target="125">
                    <mxGeometry relative="1" as="geometry"/>
                </mxCell>
                <mxCell id="163" value="Should&amp;nbsp;&lt;div&gt;attack?&lt;/div&gt;" style="ellipse;whiteSpace=wrap;html=1;fillColor=#f5f5f5;fontColor=#333333;strokeColor=#666666;" vertex="1" parent="1">
                    <mxGeometry x="810" y="1004" width="90" height="70" as="geometry"/>
                </mxCell>
                <mxCell id="164" value="select&lt;div&gt;territory&lt;/div&gt;" style="ellipse;whiteSpace=wrap;html=1;fillColor=#f5f5f5;fontColor=#333333;strokeColor=#666666;" vertex="1" parent="1">
                    <mxGeometry x="935" y="1004" width="90" height="70" as="geometry"/>
                </mxCell>
                <mxCell id="165" value="select&lt;div&gt;territory&lt;/div&gt;" style="ellipse;whiteSpace=wrap;html=1;fillColor=#f5f5f5;fontColor=#333333;strokeColor=#666666;" vertex="1" parent="1">
                    <mxGeometry x="1175" y="1002" width="90" height="70" as="geometry"/>
                </mxCell>
                <mxCell id="166" value="select num of troops" style="ellipse;whiteSpace=wrap;html=1;fillColor=#f5f5f5;fontColor=#333333;strokeColor=#666666;" vertex="1" parent="1">
                    <mxGeometry x="1310" y="1002" width="90" height="70" as="geometry"/>
                </mxCell>
                <mxCell id="167" value="add event to plan" style="ellipse;whiteSpace=wrap;html=1;fillColor=#f5f5f5;fontColor=#333333;strokeColor=#666666;" vertex="1" parent="1">
                    <mxGeometry x="1450" y="1002" width="90" height="70" as="geometry"/>
                </mxCell>
                <mxCell id="168" value="find&lt;div&gt;adjacent&lt;/div&gt;" style="ellipse;whiteSpace=wrap;html=1;fillColor=#f5f5f5;fontColor=#333333;strokeColor=#666666;" vertex="1" parent="1">
                    <mxGeometry x="1060" y="1004" width="90" height="70" as="geometry"/>
                </mxCell>
                <mxCell id="170" style="edgeStyle=none;html=1;entryX=0.5;entryY=0;entryDx=0;entryDy=0;" edge="1" parent="1" source="125" target="164">
                    <mxGeometry relative="1" as="geometry"/>
                </mxCell>
                <mxCell id="175" value="Check&amp;nbsp;&lt;div&gt;plan?&lt;/div&gt;" style="ellipse;whiteSpace=wrap;html=1;fillColor=#f5f5f5;fontColor=#333333;strokeColor=#666666;" vertex="1" parent="1">
                    <mxGeometry x="-300" y="1048" width="90" height="70" as="geometry"/>
                </mxCell>
                <mxCell id="176" value="Won Flip?" style="ellipse;whiteSpace=wrap;html=1;fillColor=#f5f5f5;fontColor=#333333;strokeColor=#666666;" vertex="1" parent="1">
                    <mxGeometry x="-160" y="1050" width="90" height="70" as="geometry"/>
                </mxCell>
            </root>
        </mxGraphModel>
    </diagram>
</mxfile>